<svg id="Layer_1" data-name="Layer 1" xmlns="http://www.w3.org/2000/svg" viewBox="0 0 150.86 48">
  <path d="M59.6,29.15v16.7H54V3.2H69.71q7,0,11,3.57a12.1,12.1,0,0,1,4,9.46c0,4.15-1.29,7.33-3.88,9.57s-6.3,3.35-11.12,3.35Zm0-4.6H69.71c3,0,5.31-.7,6.91-2.12A7.79,7.79,0,0,0,79,16.28a8.05,8.05,0,0,0-2.4-6.11A9.5,9.5,0,0,0,70,7.8H59.6Z" fill="#fff"/>
  <path d="M115.35,27H97.45V45.85H91.83V3.2h26.42V7.8H97.45V22.42h17.9Z" fill="#fff"/>
  <path d="M130.65,41.25h20.21v4.6H125V3.2h5.66Z" fill="#fff"/>
  <circle cx="26" cy="24" r="19.5" fill="#ff7a00" stroke="#fff" stroke-miterlimit="10" stroke-width="5"/>
</svg>
